<?xml version="1.0" encoding="UTF-8"?> <svg xmlns="http://www.w3.org/2000/svg" xmlns:xlink="http://www.w3.org/1999/xlink" viewBox="0 0 274.3 73.33"> <defs> <path id="A" d="M401.28 65.8h1367.45v1189.94H401.28z"></path> </defs> <clipPath> <use xlink:href="#A"></use> </clipPath> <path d="M138.85 54.27V56H123V29.53h15.68v1.72h-10.67v10.2H133v1.72h-4.98v11.1h10.83zM4.67 53.18c2.73 2.27 6.2 3.4 10.04 3.4 3.9 0 7.4-1.16 10.16-3.5 3-2.54 4.5-5.85 4.5-9.94 0-4.33-1.46-7.86-4.37-10.6-2.75-2.6-6.3-3.9-10.28-3.9-3.96 0-7.52 1.37-10.34 4.1C1.55 35.52.14 39 .14 43.2c0 4.15 1.5 7.47 4.53 10zM9.4 35.93c1.07-2.75 2.82-4.13 5.25-4.13 1.87 0 3.35.84 4.45 2.53 1.34 2.06 2 5 2 8.82 0 2.54-.42 4.73-1.24 6.58-1.07 2.4-2.7 3.6-4.93 3.6-2.27 0-4-1.2-5.2-3.57-.94-1.84-1.4-4.04-1.4-6.58-.01-2.97.35-5.4 1.07-7.26zm32.77 20.05V29.6H34v26.38h8.2zm23.03 0v-3.56h-9.66V29.6h-8.37v26.38H65.2zm34.67-21.13L116 56h1.77V29.52h-1.7l-.08 18.2-13.88-18.2h-4.45V56h2.13l.08-21.14zm98.02-5.33h-5.86l9.02 13.83v13.32h4.97V42.55l8.7-13.03h-2.57l-7.25 10.8-7-10.8zM155.8 43.6l.2-.03c1.86-.2 3.4-.85 4.6-2 .9-.87 1.55-1.9 1.9-3.1a4.69 4.69 0 0 0 .26-1.54c0-.08-.01-.16-.01-.24 0-.16.01-.32 0-.5-.02-.33-.08-.66-.16-.98-.3-1.43-.94-2.65-1.98-3.65a6.99 6.99 0 0 0-2.2-1.42c-.46-.22-.97-.36-1.63-.47-.15-.03-.3-.05-.47-.07s-.32-.04-.5-.07h-.06a11.86 11.86 0 0 0-.85-.03h-11.15v.08h-.01v14.03h.01v12.36h5V31.24h2.7c2.25 0 3.9.58 4.97 1.72.8.9 1.24 2.06 1.3 3.5-.03 1.54-.47 2.78-1.32 3.7-1.07 1.15-2.73 1.73-4.97 1.73h-1.62l.95 1.72 6.62 12.36h5.5l-7.06-12.4zm35.4-.52v-1.52h-9.94v1.68h4.98v9.74c-.46.62-1.2 1.1-2.23 1.48-1.03.38-2.14.56-3.35.56-3 0-5.33-1.22-7.02-3.65-1.52-2.2-2.3-5.02-2.3-8.5 0-3.9.83-6.95 2.5-9.12 1.66-2.18 4.08-3.27 7.26-3.27 1.6 0 3.1.5 4.45 1.48.96.7 2.03 1.8 3.2 3.33l1.48-1.04c-1.18-1.7-2.65-3.05-4.43-4.03s-3.7-1.46-5.8-1.46c-3.98 0-7.3 1.34-9.98 4s-4 6.1-4 10.3c0 3.74 1.32 6.96 3.95 9.64 2.63 2.7 5.8 4.03 9.52 4.03 4.4 0 8.3-1.36 11.7-4.1l-.01-9.58zM81.76 54.26v-11.1h4.98v-1.72h-4.98v-10.2h10.67v-1.72H76.75V56H92.6v-1.73H81.76z"></path> <radialGradient id="C" cx="256.285" cy="44.174" r="19.869" gradientTransform="matrix(0.9955 0 0 1.6195 2.8335 -27.3642)" gradientUnits="userSpaceOnUse"> <stop offset=".161" stop-color="#ffc954"></stop> <stop offset=".227" stop-color="#fec553"></stop> <stop offset=".287" stop-color="#f9ba4e"></stop> <stop offset=".345" stop-color="#f2a846"></stop> <stop offset=".4" stop-color="#e88e3b"></stop> <stop offset=".455" stop-color="#db6d2d"></stop> <stop offset=".509" stop-color="#cb441c"></stop> <stop offset=".562" stop-color="#b81408"></stop> <stop offset=".581" stop-color="#b00000"></stop> <stop offset=".692" stop-color="#8e0000"></stop> <stop offset=".9" stop-color="#540000"></stop> <stop offset="1" stop-color="#3d0000"></stop> </radialGradient> <path d="M249.6 7.14l.07 4.5s8.03 10.33 10.35 13.98l4.74 7.77c1.33 2.42 1.9 3.92 2.48 5.32.7 1.7 1.5 4.97 1.5 7.2 0 3.56-.63 5.6-1.02 6.83-.6 1.87-1.85 4.62-3.28 6.34-.75.9-1.52 1.73-2.96 3.02.84.48 4.37-4.38 4.37-4.38l5.14-8.17-2.4-12.6L249.5 5.84l.1 1.3z" fill="url(#C)"></path> <radialGradient id="D" cx="245.51" cy="33.978" r="19.555" gradientTransform="matrix(0.9955 0 0 1.6563 2.8335 -22.301)" gradientUnits="userSpaceOnUse"> <stop offset=".127" stop-color="#ffc954"></stop> <stop offset=".19" stop-color="#f1a645"></stop> <stop offset=".327" stop-color="#cf4e21"></stop> <stop offset=".442" stop-color="#b00000"></stop> <stop offset=".52" stop-color="#a30000"></stop> <stop offset=".665" stop-color="maroon"></stop> <stop offset=".858" stop-color="#490000"></stop> <stop offset="1" stop-color="#1c0000"></stop> </radialGradient> <path d="M249.63 6.65l.07 5c-1.62 2.75-6.47 9.88-8.14 12.87-2.46 4.4-4.43 8.15-5.08 13.56-.42 3.45-.06 6.62 2.05 9.5 1.42 1.93 2.95 3.3 5.58 4.27 2.76 1 5.6 1 7.12.65.2-.05-.33.18-.75.28-2.58.62-6.08.3-9.4-1.63-3.67-2.14-5.78-7.37-5.9-10.63-.1-3.28 2.25-10.87 2.25-10.87l5.85-12.27c1.54-3.12 6.34-10.74 6.34-10.74z" fill="url(#D)"></path> <radialGradient id="E" cx="239.068" cy="44.898" r="19.434" gradientTransform="matrix(0.9955 0 0 1.4829 2.8335 -21.6826)" gradientUnits="userSpaceOnUse"> <stop offset="0" stop-color="#ff7a00"></stop> <stop offset=".054" stop-color="#fd7300"></stop> <stop offset=".133" stop-color="#f75f00"></stop> <stop offset=".227" stop-color="#ee3f00"></stop> <stop offset=".291" stop-color="#e62500"></stop> <stop offset=".338" stop-color="#c92000"></stop> <stop offset=".433" stop-color="#941800"></stop> <stop offset=".53" stop-color="#671100"></stop> <stop offset=".625" stop-color="#420b00"></stop> <stop offset=".721" stop-color="#250600"></stop> <stop offset=".815" stop-color="#100300"></stop> <stop offset=".909" stop-color="#040100"></stop> <stop offset="1"></stop> </radialGradient> <path d="M249.7-.03c-.1-.08-.2-.05-.28.12l-6.97 12.12c-2.75 5.04-5.82 10.98-8.44 18.18-.88 2.43-1.62 6.5-1.85 9.33-.2 2.67.54 6.02 1.2 7.8 1.25 3.37 3.05 5.04 5.12 6.63 3.78 1.32 10.3-.47 13.4-1.96-5.23 1.74-10.13-.1-12.95-3.44-2.54-3-3.24-5.42-3.13-9.6.1-3.97 1.9-8.57 2.16-9.35 1.8-5.23 4.45-9.87 6.15-13.28 1.25-2.5 5.33-9.46 5.33-9.46.02-.05.05-.08.07-.1.03-.7.57-1.8.63-2.87.1-1.55-.4-3.13-.46-4.13z" fill="url(#E)"></path> <radialGradient id="F" cx="242.638" cy="52.624" r="20.27" gradientTransform="matrix(0.8073 0.5851 -0.8769 1.2208 94.6498 -153.5973)" gradientUnits="userSpaceOnUse"> <stop offset="0" stop-color="#ffc954"></stop> <stop offset=".208" stop-color="#ee9d41"></stop> <stop offset=".677" stop-color="#c22d13"></stop> <stop offset=".861" stop-color="#b00000"></stop> </radialGradient> <path d="M261.94 61.67c-2.6 1.8-7.98 4.52-13.88 3.76-7.57-.98-12.15-5.2-14.96-9.67-1.73-2.75-3.84-9-1.78-16.05 1.73-5.9 7.64-10.32 13.73-10.65 5.44-.3 9.08 2.08 11.22 4.33 1.02 1.08 3.22 4.1 3.1 8.1-.1 3.13-1.14 5.4-3.62 8.03-1.75 1.87-4.97 3.2-4.97 3.2l.35 1.9 5.14-3.23 4.1-6.32.64-5-1.68-5.92c-.68-.54-7.22-6.25-13.58-5.66-8.82.82-13.22 6.57-14.26 9.27-.58.78-1.1 1.2-1.1 1.2s-1.85 2.47-1.64 7.65c.2 5.16 2.85 17.54 9.38 19.75s9.42 1.88 12.37 2c2.94.1 8.56-1.94 10.4-3.4 1.82-1.45 1.78-3.77 1.07-3.28z" fill="url(#F)"></path> <radialGradient id="G" cx="246.203" cy="41.908" r="42.473" gradientTransform="matrix(0.9935 -0.0631 0.058 0.9205 0.8933 18.8701)" gradientUnits="userSpaceOnUse"> <stop offset=".086" stop-color="#ffc44d"></stop> <stop offset=".279" stop-color="#ff8a1a"></stop> <stop offset=".317" stop-color="#fd8017"></stop> <stop offset=".383" stop-color="#f66511"></stop> <stop offset=".466" stop-color="#eb3a05"></stop> <stop offset=".503" stop-color="#e62500"></stop> <stop offset=".591" stop-color="#b51d00"></stop> <stop offset=".739" stop-color="#681100"></stop> <stop offset=".861" stop-color="#300800"></stop> <stop offset=".951" stop-color="#0d0200"></stop> <stop offset="1"></stop> </radialGradient> <path d="M252.94 51.67c-3.3 1.6-9.43 3.8-14.45 2.5 4.12 2.57 7.16 3.02 9.9 2.95 2.9-.08 4.72-.7 6.73-1.7 5.08-2.53 7.42-7.66 7.78-11.86.5-6.04-2.33-10.8-6.43-13.94-4.14-3.17-8.4-3.4-11.14-3.46-3.6-.06-8.53 1.6-12.23 5.05-4.2 3.75-8.1 11.13-7.97 19.38.13 7.4 4.83 15.08 11.98 19.34 7.8 1.73 16.3-2 22.57-6.68-2.92 1.68-6.4 2.62-10.02 2.66-11.06.1-19.83-9.16-19.85-19.54 0-1.07.08-4.15 1.04-6.9 1.45-4.44 6.24-9.92 13.8-10.7 4.84-.5 10.05 1.58 12.86 5.63a11.2 11.2 0 0 1 2.12 7.69c-.13 1.6-.6 3.52-1.98 5.56a12.29 12.29 0 0 1-4.69 4.02z" fill="url(#G)"></path> <radialGradient id="H" cx="248.534" cy="59.884" r="51.675" gradientTransform="matrix(0.3405 -0.9397 0.7716 0.2821 119.4248 276.538)" gradientUnits="userSpaceOnUse"> <stop offset="0" stop-color="#e62500"></stop> <stop offset=".041" stop-color="#c11f00"></stop> <stop offset=".104" stop-color="#8e1700"></stop> <stop offset=".169" stop-color="#631000"></stop> <stop offset=".234" stop-color="#3f0a00"></stop> <stop offset=".299" stop-color="#230600"></stop> <stop offset=".364" stop-color="#100300"></stop> <stop offset=".43" stop-color="#040100"></stop> <stop offset=".497"></stop> </radialGradient> <path d="M272.23 39.1c-4.55-11.07-13.7-24.42-22.4-38.94-.08-.15-.17-.16-.24-.14-.78 1.65.07 5.34-.01 7.03.07-.06.14-.02.22.08 6.93 10.64 14.33 21.94 18 30.86 1 2.44 1.74 5.46 1.66 8.27-.22 8.25-4.73 13.74-9.63 16.95-6.14 4.36-14.53 8.02-22.73 6.7 3.66 2.18 8.02 3.43 12.62 3.43 13.58 0 24.6-10.94 24.6-24.43.01-3.48-.8-6.76-2.06-9.8z" fill="url(#H)"></path> </svg> 